<?xml version="1.0" encoding="UTF-8"?>
<svg id="Layer_2" xmlns="http://www.w3.org/2000/svg" viewBox="0 0 60 60">
  <defs>
    <style>
      .cls-1 {
        fill: #c9a165;
      }

      .cls-2 {
        fill: none;
      }
    </style>
  </defs>
  <g id="Full_Name_Logos">
    <g id="TCN_Champion_Logos">
      <rect class="cls-2" width="60" height="60"/>
      <g id="BODY">
        <g id="_x32_D_BOTTOM_ARM">
          <path class="cls-1" d="M50.6,21.28c-.65,1.98-1.97,3.74-3.55,5.36-.94.87-1.96,1.7-3,2.5-1.83,1.28-3.69,2.49-5.41,3.66-2.13,1.25-4.03,2.46-5.51,3.68-1,.69-1.84,1.38-2.49,2.08,0,0-.46.44-.64.66-.18-.22-.63-.66-.64-.66-.65-.7-1.49-1.39-2.49-2.08-1.49-1.22-3.38-2.43-5.51-3.68-1.72-1.18-3.59-2.38-5.41-3.66-1.04-.8-2.06-1.63-3-2.5-1.58-1.62-2.89-3.38-3.55-5.36,0,0,0,0,0,0-.12.1,2.45,3.85,7.86,7.11.08.05.16.11.25.16.5.32,1,.65,1.51.97.17.11.34.22.51.32,4.95,2.99,9.21,6.02,10.47,8.26,1.26-2.24,5.51-5.27,10.47-8.26.17-.11.34-.22.51-.32.51-.32,1.02-.65,1.51-.97.08-.05.17-.11.25-.16,5.41-3.27,7.98-7.02,7.86-7.11,0,0,0,0,0,0Z"/>
        </g>
        <g id="_x32_D_TOP_ARM">
          <path class="cls-1" d="M50.45,20.77c.13.1-2.22,3.91-7.58,7.2-.08.05-.16.11-.24.16-.49.33-.99.65-1.5.98-.17.11-.34.22-.51.32-4.93,3.01-9.28,6.03-10.62,8.27-1.34-2.24-5.69-5.26-10.62-8.27-.17-.11-.34-.22-.51-.32-.51-.33-1.01-.65-1.5-.98-.08-.05-.16-.11-.24-.16-5.36-3.29-7.7-7.11-7.58-7.2,4.12,5.29,12.5,8.25,17.65,11.49,1.13,1.5,2.08,3,2.7,4.52.07,0,.14,0,.21,0,.62-1.52,1.57-3.02,2.7-4.52,5.14-3.24,13.53-6.2,17.65-11.49Z"/>
        </g>
        <g id="_x32_D_HEAD">
          <g id="_x32_D_RIGHT_HEAD">
            <g id="_x32_D_RT_HEAD">
              <path class="cls-1" d="M30.08,28.52c0,.84,0,1.68,0,2.53.78.33,1.52.66,2.21,1-.58-1.19-1.35-2.36-2.21-3.53Z"/>
            </g>
            <g id="_x32_D_RB_HEAD">
              <path class="cls-1" d="M32.2,32.62c-.76.35-1.48.71-2.14,1.06,0,.87,0,1.75-.01,2.63.53-1.24,1.27-2.47,2.16-3.69Z"/>
            </g>
            <g id="_x32_D_RC_HEAD">
              <path class="cls-1" d="M32.32,32.34c-.8.37-1.56.73-2.26,1.1,0-.71,0-1.43,0-2.14.8.34,1.55.69,2.25,1.04Z"/>
            </g>
          </g>
          <g id="_x32_D_LEFT_HEAD">
            <g id="_x32_D_LT_HEAD">
              <path class="cls-1" d="M29.92,28.52c-.86,1.17-1.62,2.34-2.21,3.53.7-.33,1.44-.67,2.21-1,0-.85,0-1.69,0-2.53Z"/>
            </g>
            <g id="_x32_D_LB_HEAD">
              <path class="cls-1" d="M29.95,36.32c0-.88,0-1.76-.01-2.63-.67-.36-1.38-.71-2.14-1.06.88,1.23,1.63,2.46,2.16,3.69Z"/>
            </g>
            <g id="_x32_D_LC_HEAD">
              <path class="cls-1" d="M29.93,31.3c0,.71,0,1.42,0,2.14-.7-.37-1.46-.74-2.26-1.1.7-.35,1.46-.69,2.25-1.04Z"/>
            </g>
          </g>
        </g>
      </g>
    </g>
  </g>
</svg>