<?xml version="1.0" encoding="UTF-8"?>
<svg id="Layer_2" xmlns="http://www.w3.org/2000/svg" viewBox="0 0 187.42 68.02">
  <defs>
    <style>
      .cls-1 {
        fill: #c9a165;
      }
    </style>
  </defs>
  <g id="Full_Name_Logos">
    <g id="TCN_Champion_Logos">
      <g id="TCN">
        <path class="cls-1" d="M23.35,46.56H5.86L16.51,10.95H0L3.22.35h51.59l-3.22,10.6h-17.59l-10.65,35.61Z"/>
        <path class="cls-1" d="M105.83,29.1c-.2.62-.39,1.25-.49,1.39-1.86,6.17-3.13,8.59-5.76,10.67-3.22,2.63-8.6,4.71-13.78,5.33-2.15.28-6.74.42-14.46.42-11.24,0-14.95-.48-18.47-2.43-3.42-1.87-5.37-5.06-5.37-8.8,0-2.36,2.54-12.82,4.59-18.64,2.64-7.62,6.16-11.43,13.29-14.27,5.57-2.22,10.26-2.77,23.35-2.77,11.04,0,14.17.42,17.88,2.22,2.54,1.25,4.1,3.81,4.1,6.58,0,1.94-.2,2.98-1.56,8.11h-17.29c.1-.42.2-.76.2-.9.2-.83.39-1.73.39-2.15,0-2.49-2.15-3.19-9.77-3.19-6.94,0-9.97,1.11-11.63,4.36-1.76,3.4-5.18,14.76-5.18,17.18,0,2.98,2.64,4.09,9.77,4.09,9.18,0,11.33-1.18,12.9-7.2h17.3Z"/>
        <path class="cls-1" d="M173.54,46.56h-29.61l-4.4-19.47c-1.27-5.27-2.34-10.67-3.32-16.14h-.78l-.98,4.29c-1.47,6.31-1.76,7.41-3.42,12.82l-5.47,18.5h-17.1L122.34.35h29.41l4.5,19.47,1.76,7.83c.59,2.63,1.08,5.2,1.56,7.83h.68l.98-4.16c1.47-6.37,1.66-6.86,3.32-12.47L170.03.35h17.39l-13.87,46.21Z"/>
      </g>
      <g>
        <path class="cls-1" d="M5.64,52.94h2.35l-3.76,13.42h15.52l-.41,1.5H1.47l4.17-14.92Z"/>
        <path class="cls-1" d="M26.83,52.94h2.35l-4.17,14.92h-2.35l4.17-14.92Z"/>
        <path class="cls-1" d="M34.1,52.94l6.04,13.6,13.64-13.6h2.61l-14.96,14.92h-3.32l-6.66-14.92h2.64Z"/>
        <path class="cls-1" d="M58.76,52.94h19.48l-.41,1.5h-17.14l-1.41,4.99h16.52l-.41,1.41h-16.49l-1.55,5.53h17.28l-.41,1.5h-19.63l4.17-14.92Z"/>
        <path class="cls-1" d="M110.14,62.85l-.18.63c-.67,2.42-1.56,3.42-3.49,4.03-1.2.36-3.93.51-9.36.51s-7.22-.13-8.57-.58c-1.32-.45-1.97-1.32-1.97-2.71,0-1.03.62-3.69,1.44-6.31,1-3.07,2.14-4.38,4.46-5.06,1.67-.49,3.37-.58,10.68-.58,4.02,0,5.55.11,6.78.49,1.23.38,1.82,1.14,1.82,2.39,0,.45-.09.98-.32,1.97h-2.32c.26-.78.32-1.12.32-1.57,0-1.48-1.2-1.72-8.39-1.72-7.63,0-8.86.29-9.89,2.3-.73,1.45-2.08,6.44-2.08,7.72,0,.85.41,1.39,1.23,1.66,1.06.33,2.61.42,6.84.42,8.8,0,9.77-.25,10.48-2.75l.23-.85h2.29Z"/>
        <path class="cls-1" d="M117.36,52.94h2.35l-1.82,6.53h18.34l1.82-6.53h2.35l-4.17,14.92h-2.35l1.94-6.98h-18.34l-1.94,6.98h-2.35l4.17-14.92Z"/>
        <path class="cls-1" d="M144.71,64.5l-3.52,3.36h-2.61l15.67-14.92h3.34l7.37,14.92h-2.58l-1.67-3.36h-15.99ZM155.6,54.19l-9.39,8.9h13.79l-4.4-8.9Z"/>
        <path class="cls-1" d="M174.53,54.44h-9.95l.41-1.5h22.21l-.41,1.5h-9.92l-3.76,13.42h-2.35l3.76-13.42Z"/>
      </g>
    </g>
  </g>
</svg>