<?xml version="1.0" encoding="UTF-8"?>
<svg id="Layer_2" xmlns="http://www.w3.org/2000/svg" viewBox="0 0 402.02 180.02">
  <defs>
    <style>
      .cls-1 {
        fill: #c9a165;
      }
    </style>
  </defs>
  <g id="Full_Name_Logos">
    <g id="TCN_Champion_Logos">
      <g id="BODY">
        <g id="_x32_D_BOTTOM_ARM">
          <path class="cls-1" d="M401.98,4.92c-6.39,19.33-19.21,36.47-34.63,52.3-9.17,8.49-19.09,16.56-29.23,24.36-17.82,12.53-36.02,24.26-52.83,35.73-20.79,12.16-39.28,23.99-53.79,35.91-9.77,6.72-17.93,13.47-24.27,20.3-.07,0-4.46,4.31-6.22,6.49-1.76-2.18-6.16-6.49-6.22-6.49-6.34-6.83-14.5-13.59-24.27-20.3-14.51-11.93-33-23.75-53.79-35.91-16.8-11.47-35.01-23.21-52.83-35.73-10.15-7.8-20.06-15.87-29.23-24.36C19.25,41.4,6.43,24.25.04,4.92c0,0,0,0,0,0-1.2.93,23.88,37.53,76.67,69.42.8.52,1.6,1.05,2.41,1.58,4.84,3.15,9.79,6.3,14.77,9.46,1.66,1.05,3.32,2.1,4.99,3.15,48.33,29.18,89.87,58.74,102.12,80.6,12.26-21.87,53.79-51.43,102.12-80.6,1.66-1.05,3.33-2.1,4.99-3.15,4.98-3.15,9.93-6.31,14.77-9.46.8-.52,1.61-1.05,2.41-1.58,52.8-31.88,77.87-68.49,76.67-69.42,0,0,0,0,0,0Z"/>
        </g>
        <g id="_x32_D_TOP_ARM">
          <path class="cls-1" d="M400.56,0c1.24.93-21.65,38.13-73.93,70.26-.79.53-1.58,1.06-2.38,1.59-4.79,3.18-9.69,6.35-14.64,9.53-1.65,1.06-3.3,2.11-4.96,3.17-48.08,29.35-90.56,58.86-103.63,80.7-13.06-21.84-55.55-51.35-103.63-80.7-1.66-1.06-3.32-2.11-4.96-3.17-4.95-3.17-9.86-6.35-14.64-9.53-.8-.53-1.59-1.05-2.38-1.59C23.11,38.14.22.93,1.46,0c40.19,51.65,121.99,80.5,172.17,112.1,11.07,14.63,20.31,29.3,26.37,44.11.67,0,1.34,0,2.02,0,6.07-14.81,15.3-29.48,26.37-44.11,50.18-31.6,131.98-60.45,172.17-112.1Z"/>
        </g>
        <g id="_x32_D_HEAD">
          <g id="_x32_D_RIGHT_HEAD">
            <g id="_x32_D_RT_HEAD">
              <path class="cls-1" d="M201.75,75.61c-.02,8.19-.04,16.42-.07,24.68,7.59,3.24,14.82,6.48,21.61,9.75-5.7-11.58-13.17-23.02-21.54-34.43Z"/>
            </g>
            <g id="_x32_D_RB_HEAD">
              <path class="cls-1" d="M222.5,115.6c-7.43,3.45-14.43,6.91-20.91,10.38-.04,8.52-.08,17.07-.12,25.67,5.18-12.09,12.43-24.09,21.03-36.05Z"/>
            </g>
            <g id="_x32_D_RC_HEAD">
              <path class="cls-1" d="M223.66,112.8c-7.84,3.58-15.22,7.16-22.07,10.76.03-6.98.06-13.94.08-20.86,7.76,3.36,15.12,6.72,21.99,10.1Z"/>
            </g>
          </g>
          <g id="_x32_D_LEFT_HEAD">
            <g id="_x32_D_LT_HEAD">
              <path class="cls-1" d="M200.2,75.61c-8.36,11.4-15.83,22.86-21.53,34.43,6.79-3.27,14.01-6.51,21.6-9.75-.03-8.26-.05-16.49-.08-24.68Z"/>
            </g>
            <g id="_x32_D_LB_HEAD">
              <path class="cls-1" d="M200.51,151.64c-.05-8.59-.09-17.15-.13-25.67-6.49-3.47-13.48-6.92-20.92-10.38,8.61,11.96,15.87,23.96,21.05,36.05Z"/>
            </g>
            <g id="_x32_D_LC_HEAD">
              <path class="cls-1" d="M200.28,102.7c.03,6.93.06,13.88.09,20.86-6.85-3.6-14.23-7.18-22.08-10.76,6.87-3.38,14.23-6.74,21.99-10.1Z"/>
            </g>
          </g>
        </g>
      </g>
    </g>
  </g>
</svg>