<?xml version="1.0" encoding="UTF-8"?>
<svg id="Layer_2" xmlns="http://www.w3.org/2000/svg" viewBox="0 0 60 60">
  <defs>
    <style>
      .cls-1 {
        fill: #c9a165;
      }

      .cls-2 {
        fill: none;
      }
    </style>
  </defs>
  <g id="Full_Name_Logos">
    <g id="TCN_Champion_Logos">
      <rect class="cls-2" width="60" height="60"/>
      <g>
        <g id="TCN">
          <path class="cls-1" d="M15.97,32.5h-3.49l2.12-7.1h-3.29l.64-2.11h10.29l-.64,2.11h-3.51l-2.12,7.1Z"/>
          <path class="cls-1" d="M32.42,29.02c-.04.12-.08.25-.1.28-.37,1.23-.62,1.71-1.15,2.13-.64.52-1.71.94-2.75,1.06-.43.06-1.34.08-2.88.08-2.24,0-2.98-.1-3.68-.48-.68-.37-1.07-1.01-1.07-1.75,0-.47.51-2.56.92-3.72.53-1.52,1.23-2.28,2.65-2.85,1.11-.44,2.05-.55,4.66-.55,2.2,0,2.82.08,3.57.44.51.25.82.76.82,1.31,0,.39-.04.59-.31,1.62h-3.45c.02-.08.04-.15.04-.18.04-.17.08-.35.08-.43,0-.5-.43-.64-1.95-.64-1.38,0-1.99.22-2.32.87-.35.68-1.03,2.94-1.03,3.43,0,.59.53.81,1.95.81,1.83,0,2.26-.23,2.57-1.44h3.45Z"/>
          <path class="cls-1" d="M45.92,32.5h-5.9l-.88-3.88c-.25-1.05-.47-2.13-.66-3.22h-.16l-.19.86c-.29,1.26-.35,1.48-.68,2.56l-1.09,3.69h-3.41l2.77-9.21h5.86l.9,3.88.35,1.56c.12.52.21,1.04.31,1.56h.14l.19-.83c.29-1.27.33-1.37.66-2.49l1.09-3.69h3.47l-2.77,9.21Z"/>
        </g>
        <g>
          <path class="cls-1" d="M12.31,33.77h.47l-.75,2.68h3.09l-.08.3h-3.56l.83-2.97Z"/>
          <path class="cls-1" d="M16.54,33.77h.47l-.83,2.97h-.47l.83-2.97Z"/>
          <path class="cls-1" d="M17.99,33.77l1.21,2.71,2.72-2.71h.52l-2.98,2.97h-.66l-1.33-2.97h.53Z"/>
          <path class="cls-1" d="M22.91,33.77h3.88l-.08.3h-3.42l-.28.99h3.29l-.08.28h-3.29l-.31,1.1h3.45l-.08.3h-3.91l.83-2.97Z"/>
          <path class="cls-1" d="M33.15,35.75l-.04.12c-.13.48-.31.68-.7.8-.24.07-.78.1-1.87.1s-1.44-.03-1.71-.12c-.26-.09-.39-.26-.39-.54,0-.21.12-.74.29-1.26.2-.61.43-.87.89-1.01.33-.1.67-.12,2.13-.12.8,0,1.11.02,1.35.1.25.08.36.23.36.48,0,.09-.02.2-.06.39h-.46c.05-.16.06-.22.06-.31,0-.29-.24-.34-1.67-.34-1.52,0-1.77.06-1.97.46-.15.29-.42,1.28-.42,1.54,0,.17.08.28.25.33.21.07.52.08,1.36.08,1.76,0,1.95-.05,2.09-.55l.05-.17h.46Z"/>
          <path class="cls-1" d="M34.59,33.77h.47l-.36,1.3h3.66l.36-1.3h.47l-.83,2.97h-.47l.39-1.39h-3.66l-.39,1.39h-.47l.83-2.97Z"/>
          <path class="cls-1" d="M40.04,36.08l-.7.67h-.52l3.12-2.97h.67l1.47,2.97h-.51l-.33-.67h-3.19ZM42.22,34.02l-1.87,1.78h2.75l-.88-1.78Z"/>
          <path class="cls-1" d="M45.99,34.07h-1.98l.08-.3h4.43l-.08.3h-1.98l-.75,2.68h-.47l.75-2.68Z"/>
        </g>
      </g>
    </g>
  </g>
</svg>